<svg xmlns="http://www.w3.org/2000/svg" xmlns:svg="http://www.w3.org/2000/svg" id="Layer_1" data-name="Layer 1" version="1.1" viewBox="0 0 16 16"><metadata id="metadata3830"/><title id="title3806">field</title><g id="layer7"><g id="_Group_" data-name="&lt;Group&gt;"><circle style="fill:#f4af3d" id="circle3808" cx="8" cy="8" r="7"/></g><g id="g4190" transform="translate(-1.5910761,0.96672977)"><g style="opacity:.6" id="g3815"><path style="fill:#231f20" id="path3813" d="m 8.209,7 v 5 H 7.13672 V 7 L 6,7.01037 7.13672,6.62486 V 6.08061 A 3.25979,3.25979 0 0 1 7.26856,5.07432 1.52286,1.52286 0 0 1 7.64942,4.43653 1.40351,1.40351 0 0 1 8.26172,4.09921 3.11677,3.11677 0 0 1 9.082,4 2.89979,2.89979 0 0 1 9.71774,4.0652 4.79312,4.79312 0 0 1 10.23629,4.20977 L 9.9609,5.00913 A 3.77572,3.77572 0 0 0 9.56539,4.89858 2.03388,2.03388 0 0 0 9.11715,4.85039 1.34512,1.34512 0 0 0 8.71285,4.90425 0.58323,0.58323 0 0 0 8.4316,5.09417 0.91163,0.91163 0 0 0 8.2646,5.46551 2.69543,2.69543 0 0 0 8.20894,6.06928 v 0.5896 h 1.43559 z"/></g><polygon id="polygon3819" points="6.722 6 6 7 7 7 7 6" style="opacity:.6;fill:#231f20"/><polygon id="polygon3821" points="8.722 6 8 7 9 7 10 6" style="opacity:.6;fill:#231f20"/></g></g><g id="layer8"><g id="g3983" transform="matrix(0.1202577,0,0,0.1202577,-4.881818,-7.834717)"><rect style="stroke-width:.27718252" id="rect3963" width="58.208" height="58.208" x="113.771" y="66.812" transform="translate(-6.8749998e-7,1.2708334e-6)"/><g id="Layer_1-1" transform="matrix(0.27669793,0,0,0.27670588,-1.4883681,-1.2128743)"><g id="layer1_1_" transform="translate(408.10163,-793.97636)"><g id="g3332_1_" transform="matrix(0.24008588,0,0,0.24008588,-2.2890548,790.44159)"><path id="path24_1_" d="m 482.8347,1207.9542 -200.813,-18.3507 -157.6319,-71.2595 h 179.2184 l 179.2266,89.5228" style="fill:#fbc712"/><path id="path26_1_" d="m 482.8347,1207.9542 212.8266,-24.6514 145.6346,-64.9589 H 662.0552 l -179.2204,89.5228" style="fill:#fbc712"/><path id="path28_1_" d="m 482.8347,1745.6257 179.2204,21.3342 179.2408,68.2698 H 662.0552 l -179.2204,-89.7058" style="fill:#f6871f"/><path id="path30_1_" d="m 482.8347,1745.6257 -179.2266,19.2639 -179.2184,70.3401 h 179.2184 l 179.2266,-89.7058" style="fill:#f15e22"/><path id="path32_1_" d="m 213.998,1476.7889 -26.4513,210.4268 -63.1569,148.014 v -179.2122 l 89.6082,-179.3303" style="fill:#fcee23"/><path id="path34_1_" d="M 213.998,1476.7889 193.8473,1284.0785 124.3898,1118.344 v 179.2205 l 89.6082,179.1228" style="fill:#fcee23"/><path id="path36_1_" d="m 751.6715,1476.7889 25.8615,-194.8114 63.7487,-163.6335 v 179.2205 l -89.6102,179.1228" style="fill:#f04923"/><path id="path38_1_" d="m 751.6715,1476.7889 17.4824,197.8254 72.1279,160.6154 v -179.2122 l -89.6102,-179.3303" style="fill:#f04923"/><path id="path16_1_" d="m 124.3898,1118.344 358.4449,89.6102 v 268.6842 H 213.998 l -89.6082,-358.1113" style="fill:#f8b218"/><path id="path22_1_" d="m 124.3898,1835.2297 89.6082,-358.4408 268.8368,-0.1505 v 268.7839 l -358.4449,89.4414" style="fill:#f89d1c"/><path id="path18_1_" d="m 841.296,1118.344 -89.6245,358.4327 -268.8368,-0.1383 v -268.6985 l 358.4612,-89.4128" style="fill:#f37321"/><path id="path20_1_" d="m 841.296,1835.2297 -358.4612,-89.604 v -268.9873 l 268.8368,0.1505 89.6245,358.0748" style="fill:#f15e22"/><path id="path14_1_" d="M 482.8347,1207.9542 213.998,1476.7889 482.8348,1745.6257 751.6716,1476.7767 482.8348,1207.8668" style="fill:#f6871f"/></g></g></g></g></g></svg>