<svg xmlns="http://www.w3.org/2000/svg" width="16" height="16" viewBox="0 0 16 16"><mask id="outline"><rect width="16" height="16" x="0" y="0" fill="#fff"/><rect width="11" height="7" x="7" y="9" fill="#000"/></mask><g fill="none" fill-opacity=".8" fill-rule="evenodd" mask="url(#outline)"><polygon fill="#9AA7B0" points="7 1 3 5 7 5"/><polygon fill="#9AA7B0" points="8 1 8 6 3 6 3 15 13 15 13 1"/></g><g><rect width="4" height="4" x="9" y="11" fill="#f7941e"/><path fill="#fdb813" d="M9,13 l-1,-1.5 l0,-1.5 l1.5,0 l1.5,1 Z"/><path fill="#fdb813" d="M9,13 l-1,1.5 l0,1.5 l1.5,0 l1.5,-1 Z"/><path fill="#f58220" d="M13,13 l1,-1.5 l0,-1.5 l-1.5,0 l-1.5,1 Z"/><path fill="#f58220" d="M13,13 l1,1.5 l0,1.5 l-1.5,0 l-1.5,-1 Z"/></g></svg>